# File created by Blade
# Date/Time:  Wed Sep 24 20:15:16 2014
# Frame Rate: 120.000 fps
#------------------------------------------------------
:FULLY-SPECIFIED
:DEGREES
2056
root -6.073682 32.736139 -4.730414 17.313509 2.406315 -2.048521
Spine -22.571256 0.693503 4.438232
Head 4.595988 -3.092425 4.081901
LeftShoulder -4.477250 19.139744 10.952920
LeftArm 20.994469 33.653004 -74.019360
LeftForeArm -1.690905 -0.000000 21.745448
LeftHand -22.277526 -0.000000 -6.195462
LeftHandThumb1 -26.253704 0.000000 33.147579
RightShoulder -19.743492 14.900290 -11.356698
RightArm -35.857349 53.359895 57.827104
RightForeArm 21.206591 -0.000000 113.466599
RightHand -10.319900 0.000000 -62.468151
RightHandThumb1 -24.326973 -0.000000 -32.862282
LeftUpLeg -13.453092 7.345922 4.130627
LeftLeg 0.298353 -0.000000 -0.000000
LeftFoot -12.608026 7.321773 -18.343263
LeftToeBase 9.190967 -0.000000 -0.000000
RightUpLeg -14.411185 -5.800670 -0.877657
RightLeg 3.565416 -0.000000 -0.000000
RightFoot -9.396441 -3.042657 -12.565915
RightToeBase -0.116225 -0.000000 0.000000
2057
root -6.078493 32.735730 -4.732500 17.322391 2.485452 -2.043321
Spine -22.562504 0.680723 4.420098
Head 4.565794 -3.033301 4.071797
LeftShoulder -4.505855 19.143419 10.958298
LeftArm 20.960345 33.679078 -74.035694
LeftForeArm -1.677518 -0.000000 21.724079
LeftHand -22.205584 -0.000000 -6.305230
LeftHandThumb1 -26.253704 0.000000 33.147579
RightShoulder -19.744221 14.916611 -11.357181
RightArm -35.900114 53.395301 57.777122
RightForeArm 21.343025 -0.000000 113.467287
RightHand -10.318539 -0.000000 -62.432281
RightHandThumb1 -24.326973 -0.000000 -32.862282
LeftUpLeg -13.484669 7.331624 4.139012
LeftLeg 0.304109 -0.000000 -0.000000
LeftFoot -12.584765 7.263688 -18.359373
LeftToeBase 9.204298 -0.000000 -0.000000
RightUpLeg -14.414464 -5.825655 -0.864341
RightLeg 3.570085 -0.000000 -0.000000
RightFoot -9.413649 -3.074011 -12.537865
RightToeBase -0.073993 -0.000000 0.000000
2058
root -6.084066 32.735920 -4.735719 17.339323 2.563207 -2.045576
Spine -22.561888 0.679733 4.407217
Head 4.532146 -2.995936 4.063808
LeftShoulder -4.529625 19.156715 10.959817
LeftArm 20.953361 33.677200 -74.052675
LeftForeArm -1.696504 -0.000000 21.674087
LeftHand -22.242004 0.000000 -6.226875
LeftHandThumb1 -26.253704 0.000000 33.147579
RightShoulder -19.765251 14.912713 -11.348063
RightArm -35.893513 53.422091 57.766456
RightForeArm 21.406822 -0.000000 113.499630
RightHand -10.391349 -0.000000 -62.365320
RightHandThumb1 -24.326973 -0.000000 -32.862282
LeftUpLeg -13.526812 7.311659 4.159404
LeftLeg 0.312925 -0.000000 -0.000000
LeftFoot -12.556377 7.223496 -18.338413
LeftToeBase 9.212710 -0.000000 -0.000000
RightUpLeg -14.429905 -5.829043 -0.844380
RightLeg 3.576195 -0.000000 -0.000000
RightFoot -9.404804 -3.143893 -12.554992
RightToeBase -0.069055 -0.000000 0.000000
2059
root -6.088793 32.735590 -4.738094 17.345897 2.645937 -2.044015
Spine -22.550912 0.670304 4.396059
Head 4.504683 -2.943230 4.058392
LeftShoulder -4.550286 19.161084 10.961660
LeftArm 20.932219 33.671557 -74.074161
LeftForeArm -1.751917 0.000000 21.637790
LeftHand -22.255985 -0.000000 -6.178927
LeftHandThumb1 -26.253704 0.000000 33.147579
RightShoulder -19.778712 14.889141 -11.339251
RightArm -35.859282 53.447564 57.789897
RightForeArm 21.412526 -0.000000 113.552621
RightHand -10.415858 -0.000000 -62.343539
RightHandThumb1 -24.326973 -0.000000 -32.862282
LeftUpLeg -13.554669 7.287189 4.174595
LeftLeg 0.313902 -0.000000 -0.000000
LeftFoot -12.545719 7.166363 -18.367991
LeftToeBase 9.243811 -0.000000 -0.000000
RightUpLeg -14.426668 -5.834587 -0.829850
RightLeg 3.570712 -0.000000 -0.000000
RightFoot -9.396673 -3.214100 -12.548982
RightToeBase -0.069540 -0.000000 0.000000
2060
root -6.093947 32.735496 -4.740560 17.352433 2.725767 -2.044066
Spine -22.538690 0.671032 4.382285
Head 4.477506 -2.887175 4.057370
LeftShoulder -4.571721 19.166274 10.956863
LeftArm 20.923595 33.690227 -74.073720
LeftForeArm -1.775577 -0.000000 21.615396
LeftHand -22.240625 -0.000000 -6.233498
LeftHandThumb1 -26.253704 0.000000 33.147579
RightShoulder -19.793284 14.863735 -11.325617
RightArm -35.832453 53.455819 57.801473
RightForeArm 21.324719 -0.000000 113.615234
RightHand -10.424244 -0.000000 -62.362120
RightHandThumb1 -24.326973 -0.000000 -32.862282
LeftUpLeg -13.582448 7.254512 4.193431
LeftLeg 0.317303 -0.000000 -0.000000
LeftFoot -12.513127 7.144775 -18.353622
LeftToeBase 9.179864 -0.000000 -0.000000
RightUpLeg -14.429071 -5.863795 -0.807108
RightLeg 3.573503 -0.000000 -0.000000
RightFoot -9.399312 -3.257702 -12.559008
RightToeBase -0.054656 -0.000000 0.000000
2061
root -6.098834 32.735346 -4.743418 17.356286 2.800657 -2.045195
Spine -22.521371 0.667813 4.368620
Head 4.442720 -2.812920 4.074297
LeftShoulder -4.583513 19.165687 10.956636
LeftArm 20.914697 33.681763 -74.083908
LeftForeArm -1.759350 -0.000000 21.576741
LeftHand -22.269129 -0.000000 -6.444811
LeftHandThumb1 -26.253704 0.000000 33.147579
RightShoulder -19.838158 14.914905 -11.355895
RightArm -35.845726 53.395883 57.801043
RightForeArm 21.137961 -0.000000 113.657567
RightHand -10.461167 -0.000000 -62.434443
RightHandThumb1 -24.326973 -0.000000 -32.862282
LeftUpLeg -13.607560 7.237600 4.209213
LeftLeg 0.319089 -0.000000 -0.000000
LeftFoot -12.492830 7.105412 -18.329575
LeftToeBase 9.225857 -0.000000 -0.000000
RightUpLeg -14.431065 -5.889449 -0.784621
RightLeg 3.577490 -0.000000 -0.000000
RightFoot -9.391961 -3.297370 -12.539163
RightToeBase -0.080343 -0.000000 0.000000
2062
root -6.104077 32.735367 -4.746659 17.363128 2.864487 -2.049371
Spine -22.505848 0.670932 4.358925
Head 4.408076 -2.737344 4.085863
LeftShoulder -4.593947 19.162619 10.958928
LeftArm 20.901338 33.697041 -74.088073
LeftForeArm -1.863526 -0.000000 21.581477
LeftHand -22.286355 -0.000000 -6.255223
LeftHandThumb1 -26.253704 0.000000 33.147579
RightShoulder -19.848089 14.899217 -11.348614
RightArm -35.779188 53.378965 57.862013
RightForeArm 20.961610 -0.000000 113.721398
RightHand -10.389968 -0.000000 -62.488013
RightHandThumb1 -24.326973 -0.000000 -32.862282
LeftUpLeg -13.636458 7.230597 4.225324
LeftLeg 0.326316 -0.000000 -0.000000
LeftFoot -12.474857 7.051413 -18.344634
LeftToeBase 9.249380 -0.000000 -0.000000
RightUpLeg -14.442752 -5.911316 -0.760103
RightLeg 3.593234 -0.000000 -0.000000
RightFoot -9.408314 -3.339923 -12.575070
RightToeBase -0.008226 -0.000000 0.000000
2063
root -6.109243 32.735130 -4.750453 17.370222 2.934364 -2.050973
Spine -22.491371 0.670988 4.348876
Head 4.376793 -2.664033 4.095145
LeftShoulder -4.592080 19.171893 10.951717
LeftArm 20.913215 33.678135 -74.076130
LeftForeArm -1.811818 0.000000 21.526009
LeftHand -22.299455 -0.000000 -6.345241
LeftHandThumb1 -26.253704 0.000000 33.147579
RightShoulder -19.855776 14.874074 -11.337157
RightArm -35.685045 53.372480 57.938794
RightForeArm 20.752784 -0.000000 113.791604
RightHand -10.349087 -0.000000 -62.564532
RightHandThumb1 -24.326973 -0.000000 -32.862282
LeftUpLeg -13.668270 7.193114 4.247265
LeftLeg 0.334725 -0.000000 -0.000000
LeftFoot -12.449741 7.041072 -18.296072
LeftToeBase 9.224812 -0.000000 -0.000000
RightUpLeg -14.454236 -5.938664 -0.738116
RightLeg 3.607285 -0.000000 -0.000000
RightFoot -9.413637 -3.375348 -12.564480
RightToeBase -0.007331 -0.000000 0.000000
2064
root -6.114571 32.735079 -4.753542 17.369385 3.001251 -2.048586
Spine -22.465309 0.666908 4.328506
Head 4.333815 -2.612369 4.115932
LeftShoulder -4.586743 19.171784 10.955152
LeftArm 20.913174 33.675158 -74.070078
LeftForeArm -1.767506 -0.000000 21.512857
LeftHand -22.314114 -0.000000 -6.316095
LeftHandThumb1 -26.253704 0.000000 33.147579
RightShoulder -19.870410 14.884816 -11.327947
RightArm -35.606555 53.329742 58.008660
RightForeArm 20.501797 -0.000000 113.857189
RightHand -10.331807 -0.000000 -62.691814
RightHandThumb1 -24.326973 -0.000000 -32.862282
LeftUpLeg -13.690207 7.169775 4.264281
LeftLeg 0.344639 -0.000000 -0.000000
LeftFoot -12.438896 6.992178 -18.336535
LeftToeBase 9.243666 -0.000000 -0.000000
RightUpLeg -14.455362 -5.962883 -0.718182
RightLeg 3.615169 -0.000000 -0.000000
RightFoot -9.409871 -3.425268 -12.569339
RightToeBase -0.018796 -0.000000 0.000000
2065
root -6.122843 32.734200 -4.755358 17.355764 3.058793 -2.077052
Spine -22.431033 0.674254 4.346431
Head 4.296044 -2.560157 4.120875
LeftShoulder -4.576170 19.165111 10.952528
LeftArm 20.892485 33.668379 -74.070361
LeftForeArm -1.740905 -0.000000 21.519777
LeftHand -22.326388 -0.000000 -6.254017
LeftHandThumb1 -26.253704 0.000000 33.147579
RightShoulder -19.876635 14.899199 -11.330452
RightArm -35.507795 53.287181 58.105112
RightForeArm 20.181950 0.000000 113.921742
RightHand -10.370287 0.000000 -62.787394
RightHandThumb1 -24.326973 -0.000000 -32.862282
LeftUpLeg -13.725081 7.221093 4.298183
LeftLeg 0.406689 -0.000000 -0.000000
LeftFoot -12.448749 6.903210 -18.320411
LeftToeBase 9.208291 -0.000000 -0.000000
RightUpLeg -14.443497 -5.992066 -0.664072
RightLeg 3.620561 -0.000000 -0.000000
RightFoot -9.404157 -3.436966 -12.575622
RightToeBase -0.051034 -0.000000 0.000000
